<mxfile host="65bd71144e">
    <diagram id="D6pkl9RRAdB0jxwl9CHi" name="Page-1">
        <mxGraphModel dx="338" dy="445" grid="1" gridSize="10" guides="0" tooltips="1" connect="0" arrows="0" fold="1" page="1" pageScale="1" pageWidth="100" pageHeight="100" background="none" math="1" shadow="0">
            <root>
                <mxCell id="0"/>
                <mxCell id="1" parent="0"/>
                <mxCell id="2" value="" style="line;strokeWidth=2;html=1;rotation=-90;opacity=40;rounded=1;" parent="1" vertex="1">
                    <mxGeometry x="320" y="90" width="160" height="10" as="geometry"/>
                </mxCell>
                <mxCell id="3" value="" style="line;strokeWidth=2;html=1;rotation=0;opacity=30;rounded=1;" parent="1" vertex="1">
                    <mxGeometry x="320" y="95" width="160" height="10" as="geometry"/>
                </mxCell>
                <mxCell id="38" value="" style="pointerEvents=1;verticalLabelPosition=bottom;shadow=0;dashed=0;align=center;html=1;verticalAlign=top;shape=stencil(pZPLboMwEEW/pQtL6QIL7CSYZUTTX+jaDSZYCTaySQJ/3zE2TchDVKqEeJyZMXeuZhDNbcUbgUjMbSN2LaIfiJAzN5J/HwETiFQeMoaT1BPFa+Fhrq1UrvyLn0O6bY0+iIss2lAoVSWMbH30Eg7LcLpyhG5RvAHuLprvtFKgQmplB/Z5Fy+1EXujT6qYBMZww90/HwJj+C2KBn3ctK5hd2srJ74R/ACPRR/VvHuHN0h8fUytXatx5zuJfV99+MKEenAv/pmU8F+0JYitUebKallER2/pLQZPT/vKly9KaawTX/FjGTXgrS5mRe9OxqtOprKTe90d8SRhmKxDUkBLirNVyKIBLTELQ9EHxFKcxX/34NrZvAujX+CBFTArxT9NSBNMydSImykfnVgTzNisE78TfXVibhhoDvzFzMJiDnv0dA2APGzCQP0yD+AH);rounded=1;gradientColor=none;" vertex="1" parent="1">
                    <mxGeometry x="410" y="70" width="60" height="60" as="geometry"/>
                </mxCell>
            </root>
        </mxGraphModel>
    </diagram>
</mxfile>